<?xml version="1.0" encoding="UTF-8"?>
<svg xmlns="http://www.w3.org/2000/svg" width="1024" height="1024" viewBox="0 0 1024 1024">
  <!-- Background circle -->
  <circle cx="512" cy="512" r="490" fill="#ffffff"/>
  <!-- Wolf head silhouette -->
  <path fill="#000000" d="
    M512 190
    C470 210, 430 240, 405 275
    L300 200
    L280 350
    C250 410, 235 470, 238 520
    C245 630, 310 720, 410 770
    C450 790, 470 820, 470 860
    L554 860
    C554 820, 574 790, 614 770
    C714 720, 779 630, 786 520
    C789 470, 774 410, 744 350
    L724 200
    L619 275
    C594 240, 554 210, 512 190
    Z"/>
  <!-- Eye slits (white) -->
  <path fill="#ffffff" d="
    M410 520
    C450 500, 480 500, 515 530
    C488 530, 460 540, 410 558
    Z"/>
  <path fill="#ffffff" d="
    M614 520
    C574 500, 544 500, 509 530
    C536 530, 564 540, 614 558
    Z"/>
  <!-- Small nose swirl (white) -->
  <path fill="#ffffff" d="
    M480 820
    C480 800, 500 790, 512 790
    C528 790, 540 800, 540 816
    C540 832, 526 844, 512 844
    C498 844, 486 836, 484 824
    C492 826, 500 830, 508 830
    C520 830, 528 822, 528 812
    C528 804, 520 798, 512 798
    C500 798, 492 806, 492 818
    C492 826, 496 834, 504 840
    C494 840, 484 832, 480 820
    Z"/>
  <!-- Optional outer ring (kept transparent to match sample) -->
</svg>
